<svg width="24" height="24" viewBox="0 0 23 21" fill="none" xmlns="http://www.w3.org/2000/svg">
<path d="M8.85688 20.3518C8.20833 20.3518 7.58635 20.0942 7.12775 19.6356C6.66916 19.177 6.41152 18.555 6.41152 17.9064C6.41152 17.2579 6.66916 16.6359 7.12775 16.1773C7.58635 15.7187 8.20833 15.4611 8.85688 15.4611C9.50543 15.4611 10.1274 15.7187 10.586 16.1773C11.0446 16.6359 11.3022 17.2579 11.3022 17.9064C11.3022 18.555 11.0446 19.177 10.586 19.6356C10.1274 20.0942 9.50543 20.3518 8.85688 20.3518ZM17.4157 20.3518C16.7671 20.3518 16.1451 20.0942 15.6865 19.6356C15.2279 19.177 14.9703 18.555 14.9703 17.9064C14.9703 17.2579 15.2279 16.6359 15.6865 16.1773C16.1451 15.7187 16.7671 15.4611 17.4157 15.4611C18.0642 15.4611 18.6862 15.7187 19.1448 16.1773C19.6034 16.6359 19.861 17.2579 19.861 17.9064C19.861 18.555 19.6034 19.177 19.1448 19.6356C18.6862 20.0942 18.0642 20.3518 17.4157 20.3518ZM1.47433 3.1401C1.1691 3.13025 0.879669 3.00208 0.667236 2.78269C0.454804 2.56329 0.336029 2.26988 0.336029 1.96449C0.336029 1.6591 0.454804 1.36569 0.667236 1.14629C0.879669 0.926896 1.1691 0.798724 1.47433 0.788879L2.88164 0.788879C3.9845 0.788879 4.93819 1.55428 5.17783 2.63024L6.70986 9.52861C6.9495 10.6046 7.90319 11.37 9.00605 11.37H18.1908L19.9539 4.31509H8.52798C8.22563 4.3013 7.94023 4.17148 7.73114 3.95263C7.52206 3.73379 7.40538 3.44277 7.40538 3.1401C7.40538 2.83743 7.52206 2.54641 7.73114 2.32756C7.94023 2.10872 8.22563 1.9789 8.52798 1.9651H19.9539C20.3114 1.96499 20.6641 2.04638 20.9854 2.20308C21.3066 2.35977 21.5879 2.58764 21.8079 2.86938C22.0279 3.15111 22.1807 3.47928 22.2548 3.82895C22.3289 4.17862 22.3223 4.54058 22.2355 4.88731L20.4724 11.9397C20.3453 12.4486 20.0517 12.9004 19.6382 13.2232C19.2248 13.546 18.7153 13.7213 18.1908 13.7212H9.00605C7.93595 13.7213 6.89781 13.3565 6.06307 12.6869C5.22833 12.0174 4.64693 11.0831 4.41488 10.0385L2.88164 3.1401H1.47433Z" fill="#030303"/>
</svg>
