<svg width="24" height="24" viewBox="0 0 30 24" fill="none" xmlns="http://www.w3.org/2000/svg">
<path d="M18.9686 14.0713C19.7566 14.0713 20.5368 13.9161 21.2647 13.6146C21.9927 13.313 22.6541 12.8711 23.2113 12.3139C23.7684 11.7568 24.2104 11.0953 24.5119 10.3674C24.8134 9.63943 24.9686 8.85921 24.9686 8.07128C24.9686 7.28335 24.8134 6.50314 24.5119 5.77518C24.2104 5.04723 23.7684 4.38579 23.2113 3.82864C22.6541 3.27149 21.9927 2.82953 21.2647 2.52801C20.5368 2.22648 19.7566 2.07128 18.9686 2.07128C17.3773 2.07128 15.8512 2.70342 14.726 3.82864C13.6008 4.95386 12.9686 6.47998 12.9686 8.07128C12.9686 9.66258 13.6008 11.1887 14.726 12.3139C15.8512 13.4391 17.3773 14.0713 18.9686 14.0713ZM25.2886 12.9773L28.8686 16.5573C28.9641 16.6496 29.0402 16.76 29.0925 16.882C29.1448 17.0041 29.1723 17.1353 29.1734 17.2681C29.1744 17.4009 29.149 17.5325 29.0987 17.6554C29.0483 17.7783 28.974 17.8899 28.88 17.9837C28.7861 18.0775 28.6744 18.1517 28.5514 18.2019C28.4285 18.2521 28.2968 18.2773 28.164 18.276C28.0312 18.2748 27.9 18.2471 27.7781 18.1946C27.6561 18.1421 27.5458 18.0659 27.4536 17.9703L23.8736 14.3903C22.2661 15.6381 20.2434 16.2265 18.2174 16.0355C16.1914 15.8445 14.3142 14.8886 12.9682 13.3623C11.6221 11.8361 10.9083 9.85423 10.9721 7.82021C11.0358 5.78618 11.8723 3.85291 13.3113 2.41393C14.7503 0.974952 16.6835 0.13845 18.7176 0.0747088C20.7516 0.0109677 22.7335 0.72478 24.2597 2.07083C25.786 3.41689 26.7419 5.294 26.9328 7.32004C27.1238 9.34608 26.5355 11.3687 25.2876 12.9763L25.2886 12.9773Z" fill="#181725"/>
<rect x="0.824097" y="0.0707798" width="8.85499" height="2.39923" rx="1.19961" fill="#181725"/>
<rect x="0.824097" y="7.50897" width="6.46414" height="2.39923" rx="1.19961" fill="#181725"/>
<rect x="0.824097" y="14.9476" width="8.85499" height="2.39923" rx="1.19961" fill="#181725"/>
</svg>
