<svg width="11" height="18" viewBox="0 0 11 18" fill="none" xmlns="http://www.w3.org/2000/svg">
<path d="M10.3658 15.7263C10.6005 15.9835 10.7309 16.3218 10.7179 16.6737C10.7179 17.0256 10.5875 17.3504 10.3398 17.6075C10.1051 17.8511 9.77915 18 9.44016 18C9.10118 18 8.77523 17.8782 8.52752 17.6346L1.14812 9.97444C1.03078 9.85263 0.939511 9.70376 0.874322 9.54135C0.809133 9.37895 0.77002 9.20301 0.77002 9.02707C0.77002 8.85113 0.809133 8.67519 0.874322 8.49925C0.939511 8.33684 1.03078 8.18797 1.14812 8.06617L8.52752 0.406015C8.64486 0.284211 8.78827 0.17594 8.94473 0.108271C9.11422 0.0406015 9.28371 0 9.4532 0C9.62269 0 9.80522 0.0270677 9.96168 0.0947368C10.1181 0.162406 10.2615 0.270677 10.3919 0.392481C10.5093 0.514286 10.6005 0.676692 10.6657 0.839098C10.7439 1.0015 10.77 1.17744 10.77 1.36692C10.77 1.54286 10.7309 1.7188 10.6657 1.8812C10.6005 2.04361 10.4962 2.19248 10.3658 2.32782L3.91213 9.02707L5.13769 10.2857L10.3658 15.7263Z" fill="#181725"/>
</svg>
