<svg xmlns="http://www.w3.org/2000/svg" enable-background="new 0 0 3000 3000" viewBox="0 0 3000 3000"><path fill="#1ef4a6" d="M1717.14,430.77l-367.92,193.9c-45.5,23.98-99.79,24.43-145.68,1.2L971.79,508.59
		c-90.12-45.61-199.35,3.44-225.15,101.09l-90.18,341.4c-16.1,60.93-66.72,106.57-128.99,116.3l-134.49,21
		c-132.42,20.67-181.2,186.01-81.22,275.26l609.98,544.5c33.95,30.31,53.26,73.73,53.03,119.24l-2.35,455.74
		c-0.67,130.23,147.12,205.81,252.31,129.04l212.26-154.91c82.33-60.09,199.16-28.11,239.41,65.53l0,0
		c51.63,120.1,218.18,129.8,283.4,16.51l79.84-138.68c32.53-56.51,96.31-87.37,160.8-77.83l47.94,7.09
		c141.35,20.92,236.2-140.96,148.87-254.05l-165.93-214.88c-45.35-58.73-43.97-141.03,3.33-198.2l304.47-368.04
		c82.57-99.81,17.27-251.17-111.99-259.59l-367.65-23.94c-92.75-6.04-160.49-90.12-146.65-182.03l35.27-234.32
		C1967.49,466.13,1832.28,370.09,1717.14,430.77z"/><path d="M2436.16,1015.42c0.92,2.36,1.28,4.9,2.05,7.32c2.11,6.59,7.73,12.2,14.56,13.3c16.48,2.66,18.29-16.71,20.84-28.01
					c1.39-6.16,3.73-11.4,2.71-17.95c-0.63-4.05-2.64-8.09-6.15-10.2c-4.1-2.47-9.33-1.88-13.94-0.6c-0.29,0.08-0.58,0.17-0.87,0.25
					c-4.31,1.27-8.58,2.96-13.07,2.93c-3.77-0.02-9.02-1.74-14.62-4.17c0.36-1.16,0.71-2.31,1.05-3.47
					c0.02-0.08,0.05-0.16,0.07-0.24c0.23-0.8,0.46-1.59,0.68-2.39c0.1-0.37,0.21-0.73,0.31-1.1c0.18-0.64,0.35-1.28,0.52-1.92
					c0.15-0.55,0.29-1.1,0.43-1.65c0.13-0.51,0.26-1.02,0.39-1.53c0.18-0.72,0.36-1.45,0.53-2.17c0.09-0.36,0.17-0.72,0.26-1.08
					c0.23-0.98,0.45-1.95,0.67-2.93c0.03-0.12,0.06-0.24,0.08-0.37c3.58-16.17,5.39-32.58,5.29-48.99c2.32-0.01,4.64-0.04,6.95-0.06
					c11.26-0.09,21.96,2.32,33.26,3.14c6,0.43,12.25,2.01,16.54,6.22c1.81,1.78,3.19,3.94,4.89,5.82
					c4.64,5.13,12.08,7.92,18.75,6.11c16.11-4.37,9.77-22.76,7.43-34.11c-1.28-6.18-1.31-11.93-4.93-17.47
					c-2.25-3.43-5.74-6.28-9.81-6.76c-4.75-0.56-9.28,2.13-12.95,5.21c-0.23,0.19-0.46,0.39-0.69,0.59
					c-3.4,2.94-6.6,6.24-10.69,8.06c-11.17,4.98-43.91,0.1-49.5,0.25c-0.21,0.01-0.41,0.01-0.62,0.02
					c-2.52-21.78-8.52-43.37-18.26-64.2c0.24-0.15,0.48-0.29,0.72-0.44c9.63-5.85,20.05-9.26,30.16-14.35
					c5.37-2.7,11.54-4.55,17.39-3.13c2.46,0.6,4.75,1.75,7.18,2.49c6.62,2.03,14.43,0.61,19.24-4.36
					c11.6-12.01-3.28-24.55-11.1-33.1c-4.26-4.65-7.23-9.57-13.19-12.47c-3.69-1.8-8.15-2.45-11.89-0.77
					c-4.37,1.96-6.87,6.59-8.45,11.11c-0.1,0.29-0.2,0.57-0.29,0.86c-1.42,4.27-2.47,8.74-5.05,12.4
					c-5.36,7.62-24.4,16.74-35.26,21.97c-11.01-18.35-25.17-35.94-42.68-52.36c-1.09-1.02-2.2-2.02-3.3-3.02
					c1.6-2,3.07-3.81,4.36-5.26c4-4.5,9.05-8.49,15.01-9.33c2.51-0.35,5.06-0.13,7.59-0.33c6.9-0.55,13.64-4.75,16.27-11.15
					c6.35-15.44-12.1-21.61-22.53-26.67c-5.68-2.75-10.25-6.23-16.86-6.73c-4.09-0.31-8.47,0.72-11.34,3.66
					c-3.34,3.43-3.96,8.66-3.76,13.44c0.01,0.3,0.03,0.6,0.05,0.91c0.26,4.49,0.93,9.03-0.12,13.39c-1.15,4.79-3.89,8.87-7.25,12.69
					c-18.82-14.19-39.18-25.6-60.42-34.12c0.11-0.51,0.22-1.02,0.33-1.52c2.37-11.01,7.05-20.92,10.31-31.77
					c1.73-5.76,4.63-11.51,9.68-14.79c2.13-1.38,4.54-2.25,6.74-3.5c6.02-3.41,10.36-10.06,10.05-16.97
					c-0.75-16.68-20.09-14.5-31.67-14.68c-6.31-0.1-11.93-1.32-18.13,1.01c-3.84,1.44-7.38,4.23-8.73,8.1
					c-1.58,4.52,0.06,9.52,2.26,13.77c0.14,0.27,0.28,0.54,0.42,0.8c2.13,3.96,4.65,7.8,5.54,12.19c1.81,8.92-4.32,28.31-8.01,39.9
					c-21.47-6.51-43.6-10.17-65.78-10.85c-0.04-1.32-0.06-2.55-0.05-3.65c0.07-6.02,1.26-12.35,5.21-16.89
					c1.66-1.91,3.74-3.42,5.51-5.23c4.84-4.94,7.18-12.53,4.96-19.09c-5.34-15.82-23.31-8.37-34.5-5.35
					c-6.09,1.65-11.83,2.03-17.14,5.99c-3.29,2.45-5.92,6.11-6.15,10.2c-0.27,4.78,2.69,9.13,5.98,12.61
					c0.21,0.22,0.42,0.44,0.63,0.66c3.14,3.22,6.62,6.21,8.7,10.19c1.77,3.4,2.53,7.11,2.76,10.99
					c-22.47,1.51-44.76,6.12-66.21,13.95c-1.95-4.23-4.17-8.37-6.32-12.52c-5.2-9.99-7.91-20.62-12.32-31.05
					c-2.34-5.54-3.78-11.82-1.98-17.56c0.76-2.42,2.06-4.63,2.96-7c2.46-6.47,1.57-14.36-3.08-19.48
					c-11.22-12.36-24.72,1.65-33.76,8.89c-4.92,3.95-10.03,6.59-13.32,12.34c-2.04,3.56-2.99,7.97-1.56,11.81
					c1.66,4.49,6.12,7.29,10.52,9.16c0.28,0.12,0.56,0.23,0.84,0.35c4.16,1.7,8.55,3.04,12.04,5.86
					c9.52,7.68,20.05,39.07,22.73,43.98c0.74,1.36,1.48,2.72,2.22,4.07c-19.27,9.24-37.65,21.26-54.63,36.17
					c-4.62,4.06-9.16,8.31-13.62,12.75c-2.15,2.14-4.27,4.32-6.36,6.52c-2.88-2.56-5.51-4.89-7.46-6.82
					c-4.27-4.24-7.99-9.5-8.5-15.49c-0.22-2.52,0.15-5.06,0.08-7.6c-0.18-6.92-4-13.88-10.25-16.85
					c-15.07-7.18-22.24,10.91-27.85,21.04c-3.06,5.52-6.78,9.9-7.63,16.47c-0.53,4.07,0.26,8.5,3.04,11.52
					c3.24,3.52,8.43,4.42,13.21,4.48c0.3,0,0.61,0,0.91,0c4.5-0.01,9.07-0.43,13.37,0.85c5.88,1.75,10.53,5.93,14.91,10.66
					c-16.36,19.95-30.26,41.89-40.27,65.51c-0.12,0.28-0.24,0.56-0.35,0.84c-0.34,0.82-0.69,1.65-1.02,2.47
					c-0.21,0.52-0.42,1.03-0.62,1.55c-0.25,0.64-0.5,1.27-0.75,1.91c-0.3,0.76-0.58,1.53-0.87,2.29c-0.16,0.42-0.32,0.84-0.47,1.27
					c-0.41,1.11-0.81,2.22-1.2,3.33c-0.04,0.1-0.07,0.21-0.11,0.31c-0.91,2.61-1.78,5.24-2.59,7.89c-0.32,1.06-0.62,2.11-0.92,3.17
					c-6.61-1.02-13.17-2.36-19.97-3.13c-5.98-0.67-12.16-2.5-16.28-6.88c-1.73-1.85-3.02-4.06-4.65-6.01
					c-4.43-5.31-11.75-8.4-18.49-6.86c-16.28,3.72-10.68,22.35-8.79,33.78c1.03,6.23,0.82,11.97,4.23,17.65
					c2.11,3.52,5.48,6.51,9.53,7.15c4.73,0.75,9.36-1.76,13.14-4.68c0.24-0.18,0.48-0.37,0.72-0.56c3.52-2.8,6.85-5.97,11.01-7.63
					c5.29-2.11,15.17-1.89,24.78-1.05c-1.43,9.29-2.12,18.59-2.12,27.84c0,0.11,0,0.22,0,0.33c0,1.18,0.02,2.36,0.04,3.54
					c0.01,0.24,0.01,0.49,0.02,0.73c0.03,1.1,0.06,2.2,0.11,3.31c0.01,0.32,0.03,0.64,0.04,0.96c0.05,1.05,0.11,2.1,0.17,3.16
					c0.02,0.37,0.05,0.73,0.07,1.1c0.07,1.02,0.15,2.04,0.23,3.06c0.03,0.39,0.07,0.77,0.11,1.16c0.09,1.01,0.19,2.01,0.29,3.02
					c0.04,0.38,0.09,0.75,0.13,1.13c0.08,0.72,0.16,1.44,0.25,2.16c-10.01,4.22-20.44,6.22-30.8,9.8
					c-5.69,1.97-12.05,2.98-17.65,0.79c-2.36-0.92-4.48-2.37-6.78-3.42c-6.29-2.89-14.22-2.53-19.65,1.77
					c-13.09,10.36-0.02,24.77,6.6,34.28c3.61,5.18,5.9,10.45,11.41,14.12c3.42,2.27,7.75,3.51,11.68,2.35
					c4.59-1.36,7.69-5.61,9.85-9.88c0.14-0.27,0.27-0.54,0.4-0.81c1.97-4.04,3.61-8.33,6.66-11.62c5.39-5.82,20.73-11.4,32.25-15.24
					c0.11,0.47,0.22,0.94,0.34,1.41c0.23,0.93,0.46,1.86,0.69,2.79c0.12,0.46,0.23,0.91,0.35,1.37c0.27,1.02,0.54,2.03,0.82,3.04
					c0.1,0.37,0.2,0.74,0.31,1.11c0.33,1.16,0.67,2.32,1.01,3.48c0.07,0.22,0.13,0.44,0.2,0.66c10.08,33.25,27.83,64.74,49.97,92.39
					c0.1,0.12,0.19,0.24,0.29,0.36c0.81,1.01,1.63,2.02,2.46,3.03c0.23,0.28,0.46,0.56,0.7,0.84c0.69,0.83,1.38,1.66,2.08,2.48
					c0.19,0.23,0.38,0.45,0.57,0.68c-2.01,1.16-4.01,2.35-6,3.61c-5.07,3.24-11.02,5.7-16.98,4.88c-2.51-0.34-4.91-1.26-7.39-1.75
					c-6.79-1.35-14.42,0.85-18.69,6.29c-10.32,13.12,5.75,24.09,14.4,31.8c4.71,4.2,8.17,8.79,14.39,11.07
					c3.85,1.41,8.35,1.61,11.9-0.43c4.15-2.39,6.17-7.25,7.28-11.91c0.07-0.29,0.14-0.59,0.2-0.89c0.98-4.39,1.57-8.94,3.77-12.85
					c2.12-3.78,7.17-8.19,12.99-12.46c9.48,9.66,19.45,18.66,29.73,26.87c10.19,8.13,20.81,15.17,31.75,21.15
					c-1.51,3.59-3.45,6.85-6.26,9.48c-3.27,3.07-7.55,4.73-11.58,6.73c-0.27,0.14-0.54,0.27-0.81,0.41
					c-4.26,2.19-8.49,5.32-9.82,9.91c-1.14,3.94,0.13,8.26,2.42,11.66c3.7,5.49,8.99,7.75,14.19,11.32
					c9.55,6.56,24.04,19.54,34.32,6.38c4.26-5.45,4.57-13.39,1.64-19.66c-1.07-2.3-2.53-4.4-3.47-6.76
					c-2.22-5.59-1.25-11.96,0.68-17.66c0.15-0.46,0.33-0.94,0.51-1.44c27.24,11.1,55.96,16.16,84.75,15.48
					c0.84,9.27,0.39,18.46,1.09,27.91c0.45,6-0.2,12.41-3.74,17.27c-1.49,2.05-3.43,3.73-5.04,5.68c-4.4,5.34-6.07,13.1-3.31,19.45
					c6.68,15.3,23.95,6.34,34.83,2.37c5.93-2.16,11.61-3.03,16.56-7.43c3.07-2.72,5.37-6.59,5.25-10.69
					c-0.14-4.78-3.46-8.87-7.04-12.05c-0.23-0.2-0.45-0.4-0.68-0.6c-3.4-2.94-7.13-5.62-9.54-9.4c-4.14-6.52-5.65-22.12-6.44-34.12
					c5.74-0.71,11.48-1.65,17.19-2.81c26.27-5.34,52.04-15.42,76.21-29.95c3.63,6.66,6.74,13.57,10.63,20.29
					c3.01,5.21,5.22,11.26,4.15,17.18c-0.45,2.49-1.47,4.85-2.07,7.31c-1.64,6.72,0.23,14.44,5.48,18.95
					c12.67,10.87,24.32-4.71,32.39-13.02c4.4-4.53,9.13-7.78,11.68-13.9c1.58-3.79,1.97-8.27,0.08-11.91
					c-2.21-4.25-6.98-6.48-11.58-7.78c-0.29-0.08-0.58-0.16-0.88-0.24c-4.34-1.16-8.87-1.95-12.68-4.31
					c-5.9-3.65-13.08-14.84-18.78-24.66c0.25-0.18,0.49-0.36,0.74-0.54c0.84-0.6,1.68-1.21,2.52-1.82c0.46-0.33,0.92-0.67,1.37-1
					c1-0.74,2-1.49,2.98-2.24c0.27-0.2,0.53-0.4,0.8-0.6c1.23-0.94,2.46-1.89,3.68-2.85c0.38-0.3,0.75-0.6,1.12-0.89
					c0.86-0.68,1.72-1.37,2.57-2.06c0.44-0.36,0.88-0.72,1.32-1.08c0.8-0.66,1.6-1.32,2.39-1.98c0.42-0.35,0.84-0.7,1.26-1.06
					c0.9-0.76,1.79-1.53,2.68-2.3c0.28-0.25,0.57-0.49,0.86-0.74c1.18-1.03,2.34-2.06,3.5-3.1c0.2-0.18,0.41-0.37,0.61-0.55
					c0.96-0.86,1.9-1.73,2.85-2.61c0.33-0.31,0.66-0.61,0.98-0.92c0.84-0.78,1.67-1.57,2.49-2.36c0.32-0.3,0.63-0.61,0.95-0.91
					c0.83-0.8,1.66-1.61,2.48-2.43c0.01,0.02,0.02,0.04,0.04,0.06c2.02,4,2.42,8.58,3.21,13c0.05,0.3,0.11,0.6,0.16,0.89
					c0.91,4.7,2.72,9.64,6.76,12.21c3.46,2.2,7.97,2.19,11.88,0.95c6.31-2.01,9.96-6.45,14.85-10.44
					c8.98-7.32,25.5-17.59,15.76-31.15c-4.04-5.62-11.57-8.15-18.4-7.1c-2.5,0.38-4.94,1.19-7.46,1.43
					c-2.55,0.24-5.07-0.12-7.51-0.88c17.51-21.05,31.51-43.98,41.56-67.94c1.35,0.79,2.72,1.58,4.12,2.33
					C2428.95,1005.8,2433.99,1009.81,2436.16,1015.42z"/><path fill="#fff" d="M2101.66 936.73c-9.88-1.78-15.91-12.54-11.9-21.75 3.32-7.63 12.85-12.84 36.52-6.58 52.6 13.9 64.85 42.74 58.15 52.79-5.56 8.33-14.76 22.47-41.67 11.11C2119.37 962.42 2122.4 940.46 2101.66 936.73zM2273.6 910.44c-4.35.31-8.58 1.51-12.32 3.74-6.59 3.91-15.39 12.07-12.25 26.9 4.86 22.89 10.41 22.89 24.3 17.33s36.11 2.78 36.11-13.89C2309.44 928.96 2299.76 908.56 2273.6 910.44zM2112.22 1011.19c0 0 25 25 52.78 13.89 27.78-11.11 13.09-22.22 39.88-13.89 26.79 8.33 25.98 19.38 51.39 6.91 25.4-12.47 67.07-9.75 53.18 0s-34.14 12.53-53.18 22.26c-19.04 9.72-11.51 15.28-51.39 0-39.88-15.28-50.8 17.59-67.56 9.49C2120.55 1041.74 2073.33 1016.74 2112.22 1011.19z"/><path d="M764.57,2121.68c30.19,58.84,53.97,120.95,69.65,186.07c7.95,33.02,13.67,68.94,0.01,100.04
				c-14.92,33.97-50.56,55.03-86.84,62.75c-88.64,18.85-180.56-31.66-236.38-103.06c-55.82-71.39-82.73-160.58-107.67-247.71
				c-19.64-68.59-39.04-138.23-72.95-201.43c-14.54-27.09-97.08-130.43-61.71-159.89c48.31-41.76,195.53-5.69,293.34,91.52
				C642.6,1930.04,712.95,2021.07,764.57,2121.68z"/><path fill="#fff" d="M747.39,2478.4c-3.47,0-6.64-2.31-7.6-5.82c-0.24-0.88-24.47-89.25-80.21-210.18
				c-51.38-111.47-140.81-274.22-275.09-416.5c-2.99-3.16-2.84-8.15,0.32-11.13c3.16-2.98,8.15-2.84,11.13,0.32
				c135.84,143.93,226.2,308.41,278.09,421.04c56.22,122.05,80.71,211.44,80.95,212.33c1.14,4.2-1.34,8.52-5.54,9.66
				C748.76,2478.31,748.07,2478.4,747.39,2478.4z"/><path fill="#fff" d="M683.89 2307.31c-.12 0-.24 0-.36-.01-4.34-.19-7.71-3.87-7.52-8.22.1-2.23 8.5-225.08-115.61-369.38-2.83-3.3-2.46-8.27.84-11.11 3.3-2.83 8.27-2.46 11.1.84 67.12 78.05 96 177.32 108.41 246.86 13.42 75.16 11.09 131.15 10.98 133.5C691.56 2304.01 688.08 2307.31 683.89 2307.31zM611.36 2181.91c-26.64 0-85.25-12.82-146.15-110.26-2.3-3.69-1.18-8.54 2.5-10.85 3.69-2.31 8.55-1.18 10.85 2.5 74.09 118.55 142.76 102 143.44 101.82 4.18-1.11 8.5 1.36 9.64 5.53 1.14 4.17-1.27 8.47-5.43 9.64C625.41 2180.52 620.1 2181.91 611.36 2181.91z"/><path d="M728.05,1227.55c-0.17-64.82,45.42-143.67,101.76-176.18l486.04-280.48c28.36-16.37,54.07-17.89,72.63-7.1l43.44,25.35
					c0.05,0.03,0.1,0.06,0.15,0.09l0.28,0.16l0,0.01c18.31,10.65,29.67,33.26,29.76,65.46l-0.51,1291.27
					c0.17,64.73-45.42,143.67-101.76,176.19l-486.03,280.48c-28.36,16.36-54.05,17.86-72.61,7.06l0,0.01l-43.88-25.59
					c-18.32-10.65-29.68-33.3-29.77-65.46L728.05,1227.55z"/><path fill="none" d="M882.4,1093.18l94.28-54.41c2.22-1.28,4.81-1.79,7.35-1.43l51.66,7.25c2.54,0.36,5.13-0.14,7.35-1.43
					l152.28-87.86c1.07-0.62,2.04-1.41,2.86-2.33l75.14-84.72c0.82-0.93,1.79-1.71,2.86-2.33l103.8-59.9
					c30.48-17.59,68.56,4.41,68.56,39.6l-0.19,1302.6c-0.01,65.34-34.87,125.71-91.46,158.37l-79.38,45.82l-299.72,172.94
					l-128.57,74.21c-26.56,15.33-59.76-3.84-59.75-34.51l0.19-1311.33C789.69,1187.49,825.04,1126.29,882.4,1093.18z"/><path fill="#fff" d="M849.25,2599.56l128.57-74.21l299.72-172.94l79.38-45.82c56.59-32.66,91.45-93.04,91.46-158.37l0.19-1302.6
					c0-35.19-38.08-57.18-68.56-39.6l-103.8,59.9c-1.07,0.62-2.04,1.41-2.86,2.33l-75.14,84.72c-0.82,0.93-1.79,1.71-2.86,2.33
					l-152.28,87.86c-2.22,1.28-4.81,1.78-7.35,1.43l-51.66-7.25c-2.54-0.36-5.13,0.15-7.35,1.43l-94.28,54.41
					c-57.37,33.11-92.71,94.31-92.72,160.54l-0.19,1311.33C789.49,2595.72,822.68,2614.89,849.25,2599.56z"/><path fill="#fff" d="M1186.43 943.58l-101.26 58.45c-5.58 3.22-10.1 1.31-10.1-4.27 0-5.58 4.52-12.71 10.1-15.93l101.26-58.45c5.58-3.22 10.1-1.31 10.1 4.27C1196.53 933.23 1192.01 940.36 1186.43 943.58zM752.2 1463.11c1.98 2.26 3.67 4.92 4.9 7.71 1.4 3.16 2.2 6.48 2.2 9.53l-.01 107.33c-.01 4.02-1.42 6.84-3.68 8.16l-9.18 5.32c2.27-1.32 3.68-4.14 3.69-8.16l.01-107.33c.01-3.05-.8-6.37-2.2-9.53-1.23-2.78-2.92-5.45-4.9-7.7-1.67-1.9-3.55-3.52-5.55-4.67l-3.49-2.01c-3.51-2.03-6.7-2.21-9.02-.86l9.17-5.33c2.31-1.35 5.51-1.16 9.02.86l3.49 2.01C748.65 1459.6 750.53 1461.21 752.2 1463.11z"/><path d="M750.45,1485.78l-0.78,107.33c-0.08,8.1-5.77,11.28-12.78,7.16l-3.47-2.04c-6.95-4.08-12.57-13.9-12.49-22l0.78-107.33
					c0.08-8.01,5.83-11.23,12.78-7.16l3.47,2.04C744.98,1467.91,750.52,1477.77,750.45,1485.78z"/><path fill="#fff" d="M1044.85 1000.88c-6.85 3.95-12.38 13.54-12.36 21.41.02 7.87 5.59 11.05 12.44 7.1 6.85-3.95 12.39-13.54 12.37-21.41C1057.28 1000.11 1051.71 996.93 1044.85 1000.88zM1185.38 2338.25c1.2-.24 2.33-.36 3.34-.36 1.97 0 3.5.45 4.26 1.3 1.13 1.27 1.13 4.15.01 7.5-3.42 10.27-15.77 21.16-26.44 23.31-3.53.71-6.44.35-7.58-.95-1.12-1.27-1.13-4.15-.01-7.5C1162.43 2351.11 1174.53 2340.44 1185.38 2338.25z"/><path d="M1147.16,2379.49c3.82,4.32,9.52,6.61,16.14,6.61c2.04,0,4.17-0.22,6.36-0.66c16.25-3.28,33.06-18.11,38.27-33.77
						c2.97-8.92,1.82-17.27-3.16-22.91c-5-5.66-13.21-7.83-22.5-5.95c-16.24,3.28-33.04,18.11-38.26,33.77
						C1141.03,2365.5,1142.18,2373.85,1147.16,2379.49z M1158.95,2361.56c3.48-10.45,15.58-21.12,26.43-23.31
						c1.2-0.24,2.33-0.36,3.34-0.36c1.97,0,3.5,0.45,4.26,1.3c1.13,1.27,1.13,4.15,0.01,7.5c-3.42,10.27-15.77,21.16-26.44,23.31
						c-3.53,0.71-6.44,0.35-7.58-0.95C1157.83,2367.78,1157.83,2364.91,1158.95,2361.56z"/><g><rect width="0" height="405.36" x="1266.44" y="1044.14" fill="none" transform="rotate(-44.398 1266.46 1246.89)"/><polygon fill="none" points="1356.43 1246.69 1465.81 1358.39 1465.81 1358.39"/><rect width="0" height="405.36" x="1376.46" y="980.62" fill="none" transform="rotate(-44.398 1376.479 1183.365)"/><polygon fill="none" points="1010.96 1245.64 1245.76 1485.44 1245.76 1485.44"/><polygon fill="none" points="942.34 1267.6 904.59 1229.05 904.59 1229.05"/><polygon fill="none" points="1347.97 1413.94 1355.79 1421.92 1355.79 1421.92"/><polygon fill="none" points="1439.93 980.19 1685.86 1231.35 1685.86 1231.35"/><polygon fill="none" points="1553.66 1272.23 1575.83 1294.87 1575.83 1294.87"/><polygon fill="#fff" points="797.65 1453.69 1076.29 1614.56 1076.29 1591.5 797.65 1306.94"/><polygon fill="#fff" points="1581.87 1332.25 1634.25 1302.01 1634.25 1280.39 1581.87 1310.64"/><polygon fill="#fff" points="1628.29 1264.59 1344.69 974.96 1292.24 1005.24 1553.66 1272.23 1575.83 1294.87"/><polygon fill="#fff" points="1141.86 1586.32 1194.24 1556.08 1194.24 1534.43 1141.86 1564.68"/><polygon fill="#fff" points="852.14 1259.33 1135.74 1548.96 1188.19 1518.68 942.34 1267.6 904.59 1229.05"/><polygon fill="#fff" points="1471.79 1395.82 1524.17 1365.57 1524.17 1343.95 1471.79 1374.19"/><polygon fill="#fff" points="1518.26 1328.11 1234.66 1038.48 1182.21 1068.77 1356.43 1246.69 1465.81 1358.39"/><polygon fill="#fff" points="1736 1243.26 1736 1221.65 1691.95 1247.08 1691.95 1268.69"/><polygon fill="#fff" points="1731.27 1205.13 1447.67 915.5 1402.26 941.72 1439.93 980.19 1685.86 1231.35"/><polygon fill="#fff" points="1361.86 1459.29 1414.25 1429.04 1414.25 1407.41 1361.86 1437.65"/><polygon fill="#fff" points="1408.24 1391.63 1124.64 1102 1072.19 1132.29 1347.97 1413.94 1355.79 1421.92"/><polygon fill="#fff" points="1251.78 1522.85 1304.17 1492.6 1304.17 1470.97 1251.78 1501.21"/><polygon fill="#fff" points="1298.21 1455.16 1014.62 1165.53 962.16 1195.81 1010.96 1245.64 1245.76 1485.44"/><path d="M1748.5,1200c-0.11-0.07-0.24-0.09-0.36-0.15l-297.76-304.09l-662.69,382.6c-0.52,0.1-1.03,0.24-1.53,0.44
					c-3.14,1.28-5.18,4.33-5.18,7.72v171.99c0,2.98,1.59,5.73,4.17,7.22l295.31,170.49c1.29,0.74,2.73,1.12,4.17,1.12
					c1.44,0,2.88-0.37,4.17-1.12l659.71-380.93c2.58-1.49,4.17-4.24,4.17-7.22v-40.85C1752.66,1204.24,1751.07,1201.49,1748.5,1200z
					 M1736,1221.65v21.61l-44.05,25.43v-21.61L1736,1221.65z M942.34,1267.6l245.85,251.08l-52.45,30.28l-283.6-289.63l52.45-30.28
					l0,0L942.34,1267.6z M1076.29,1614.56l-278.64-160.87v-146.76l278.64,284.56V1614.56z M1194.24,1556.08l-52.38,30.25v-21.65
					l52.38-30.24V1556.08z M1010.96,1245.64l-48.8-49.83l52.45-30.28l283.6,289.63l-52.45,30.28l0,0L1010.96,1245.64z
					 M1304.17,1492.6l-52.38,30.25v-21.64l52.38-30.24V1492.6z M1347.97,1413.94l-275.79-281.65l52.45-30.28l0,0l283.6,289.63l0,0
					l-52.45,30.28l0,0L1347.97,1413.94z M1414.25,1429.04l-52.38,30.25v-21.63l52.38-30.24V1429.04z M1356.43,1246.69
					l-174.22-177.92l52.45-30.28l0,0l283.6,289.63l0,0l-52.45,30.28l0,0L1356.43,1246.69z M1524.17,1365.57l-52.38,30.25v-21.63
					l52.38-30.24V1365.57z M1553.66,1272.23l-261.43-266.98l52.45-30.28l283.6,289.63l-52.45,30.28l0,0L1553.66,1272.23z
					 M1634.25,1302.01l-52.38,30.25v-21.62l52.38-30.24V1302.01z M1439.93,980.19l-37.67-38.47l45.41-26.22l283.6,289.63
					l-45.41,26.22l0,0L1439.93,980.19z"/></g><g><polygon fill="none" points="2597.41 1341.35 2534.75 1377.18 2597.41 1405.94"/><polygon fill="none" points="1848.93 1691.4 2108.2 1829.28 2108.2 1706.03 1848.93 1581.73"/><polygon fill="none" points="1848.93 1461.82 1848.93 1560.87 1923.57 1504.91"/><path fill="none" d="M2587.59,1419.78l-70.44-32.34c-0.06-0.03-0.11-0.07-0.17-0.1l-392.12,224.24v74.8L2587.59,1419.78z"/><polygon fill="none" points="2108.2 1687.55 2108.2 1611.5 1939.27 1513.97 1863.94 1570.45"/><polygon fill="#fff" points="2684.14 1269.37 2724.76 1245.91 2724.76 1226.98 2684.14 1250.43"/><polygon fill="#fff" points="2581.26 1309.83 2581.26 1328.77 2630.22 1300.5 2630.22 1281.56"/><polygon fill="#fff" points="2478.39 1369.22 2478.39 1388.17 2527.34 1359.9 2527.34 1340.96"/><polygon fill="#fff" points="2375.66 1428.53 2375.66 1447.49 2424.62 1419.22 2424.62 1400.27"/><polygon fill="#fff" points="2272.79 1487.93 2272.79 1506.89 2321.74 1478.62 2321.74 1459.66"/><polygon fill="#fff" points="2170.06 1547.24 2170.06 1566.21 2219.01 1537.94 2219.01 1518.97"/><path fill="#fff" d="M1848.93,1442.57l93.24,53.83l0.69,0.4c0.01,0.01,0.02,0.01,0.03,0.02l165.35,95.46v-20.38l-259.31-264.82
				V1442.57z"/><rect width="0" height="190.93" x="2025.56" y="1449.08" transform="rotate(-60 2025.587 1544.61)"/><polygon fill="#fff" points="2413.79 964.81 2678.05 1234.7 2720.03 1210.46 2455.77 940.58"/><polygon fill="#fff" points="2208.15 1083.54 2472.41 1353.43 2521.43 1325.13 2257.16 1055.24"/><polygon fill="#fff" points="2310.97 1024.18 2575.23 1294.06 2624.25 1265.76 2359.98 995.88"/><polygon fill="#fff" points="2002.5 1202.27 2266.77 1472.16 2315.79 1443.85 2051.52 1173.97"/><polygon fill="#fff" points="2105.33 1142.91 2369.59 1412.79 2418.61 1384.49 2154.34 1114.6"/><polygon fill="#fff" points="1899.68 1261.63 2163.95 1531.52 2212.97 1503.22 1948.7 1233.33"/><path d="M2609.91,1411.72c-0.09-0.05-0.18-0.07-0.27-0.11c0.18,0.1,0.36,0.2,0.53,0.31
				C2610.08,1411.86,2610.01,1411.78,2609.91,1411.72z"/><path d="M2737.26,1205.33c-0.11-0.07-0.24-0.09-0.36-0.15l-278.43-284.35l-619.5,357.67c-0.52,0.1-1.03,0.24-1.53,0.44
				c-3.14,1.28-5.18,4.33-5.18,7.72v160.73v249.02c0,3.08,1.7,5.91,4.42,7.36l275.94,146.74c0.38,0.2,0.78,0.31,1.18,0.45
				c0.23,0.08,0.45,0.2,0.68,0.26c0.67,0.17,1.36,0.27,2.05,0.27c1.48,0,2.95-0.39,4.26-1.17l489.21-291.3
				c2.52-1.5,4.07-4.22,4.07-7.16v-132.91v-89.87l123.18-71.13c2.58-1.49,4.17-4.24,4.17-7.22v-38.18
				C2741.42,1209.57,2739.83,1206.82,2737.26,1205.33z M2455.77,940.58l264.26,269.89l-41.98,24.24l-264.27-269.88L2455.77,940.58z
				 M2359.98,995.88l264.27,269.88l-49.02,28.3l-264.27-269.89L2359.98,995.88z M2527.34,1359.9l-48.95,28.27v-18.95l48.95-28.26
				V1359.9z M2170.06,1547.24l48.95-28.26v18.97l-48.95,28.27V1547.24z M2272.79,1487.93l48.95-28.26v18.96l-48.95,28.27V1487.93z
				 M2375.66,1428.53l48.95-28.26v18.95l-48.95,28.27V1428.53z M2257.16,1055.24l264.27,269.89l-49.02,28.3l-264.27-269.89
				L2257.16,1055.24z M2154.34,1114.6l264.27,269.89l-49.02,28.3l-264.27-269.89L2154.34,1114.6z M2051.52,1173.97l264.27,269.89
				l-49.02,28.3l-264.27-269.89L2051.52,1173.97z M1848.93,1461.82l74.64,43.09l-74.64,55.96V1461.82z M2108.2,1829.28
				l-259.27-137.88v-109.67l259.27,124.3V1829.28z M2108.2,1687.55l-244.26-117.1l75.33-56.47l168.93,97.53V1687.55z
				 M2108.24,1592.28L2108.24,1592.28l-165.35-95.46v0c-0.01-0.01-0.02-0.01-0.03-0.02l-0.69-0.4l-93.24-53.83v-135.49
				l259.31,264.82V1592.28z M1899.68,1261.63l49.02-28.3l264.27,269.89l-49.02,28.3L1899.68,1261.63z M2124.87,1686.37v-74.8
				l392.12-224.24c0.06,0.03,0.11,0.07,0.17,0.1l70.44,32.34L2124.87,1686.37z M2597.41,1405.94l-62.66-28.77l62.66-35.83V1405.94z
				 M2609.64,1411.61c0.09,0.05,0.18,0.06,0.27,0.11c0.09,0.05,0.16,0.14,0.26,0.2C2610,1411.81,2609.82,1411.71,2609.64,1411.61z
				 M2581.26,1328.77v-18.94l48.95-28.26v18.94L2581.26,1328.77z M2724.76,1245.91l-40.62,23.45v-18.94l40.62-23.45V1245.91z"/></g><path d="M2060.62,1873.49l-102.17-58.35c-4-2.28-9.09-0.89-11.37,3.1c-2.28,4-0.89,9.09,3.1,11.37l39.68,22.66l-440.31,308.96
			l-46.66-26.65c-4-2.28-9.09-0.89-11.37,3.1c-2.28,4-0.89,9.09,3.1,11.37l49.71,28.39c0.8,0.71,1.73,1.19,2.7,1.54l49.75,28.42
			c1.3,0.74,2.73,1.1,4.13,1.1c2.89,0,5.71-1.51,7.25-4.2c2.28-4,0.89-9.09-3.1-11.37l-39.51-22.57l440.31-308.96l46.49,26.55
			c1.3,0.74,2.73,1.1,4.13,1.1c2.89,0,5.71-1.51,7.25-4.2C2066.01,1880.86,2064.62,1875.77,2060.62,1873.49z"/><g><polygon fill="#fff" points="963.87 1857.4 974.95 2263.44 1176.29 2147.83 1155.71 1748.87"/><path d="M1171.66,1734.55c-0.15-2.88-1.78-5.49-4.31-6.88c-2.53-1.39-5.6-1.37-8.11,0.05L951.3,1845.36
					c-2.69,1.52-4.31,4.4-4.23,7.48l11.6,424.99c0.08,2.93,1.7,5.6,4.25,7.04c1.27,0.71,2.67,1.07,4.08,1.07
					c1.43,0,2.86-0.37,4.15-1.11l217.88-125.09c2.72-1.56,4.33-4.52,4.17-7.66L1171.66,1734.55z M974.95,2263.44l-11.08-406.03
					l191.84-108.54l20.58,398.97L974.95,2263.44z"/><path fill="#fff" d="M947.23,1850.95l8.34-40.88l-64.97,6.78l-24.63,393.6l92.33,52.64l-11.24-410.25
				C947.05,1852.21,947.11,1851.57,947.23,1850.95z"/><path d="M963.75,1853.35l10.42-51.08c0.53-2.6-0.21-5.3-1.99-7.26c-1.78-1.96-4.4-2.99-7.04-2.69l-83.28,8.69
				c-4.05,0.42-7.2,3.71-7.45,7.77l-25.4,405.83c-0.2,3.17,1.43,6.19,4.19,7.76l109.71,62.55c1.28,0.73,2.7,1.09,4.13,1.09
				c1.48,0,2.97-0.4,4.28-1.19c2.58-1.55,4.13-4.37,4.05-7.38L963.75,1853.35z M890.61,1816.86l64.97-6.78l-8.34,40.88
				c-0.13,0.62-0.18,1.26-0.17,1.89l4.38,159.85l-12.89,171.85l-71.09,26.76l-1.49-0.85L890.61,1816.86z"/><path fill="#fff" d="M1077,1740c-1.57-1.79-2.3-4.16-2.01-6.52l3.35-27.24l-157.46,90.71l44.28-4.62
				c0.29-0.03,0.58-0.05,0.87-0.05c2.34,0,4.58,0.98,6.17,2.73c1.78,1.97,2.52,4.67,1.99,7.27l-6.97,34.07l164.79-93.23l-48.81-0.29
				C1080.83,1742.81,1078.58,1741.78,1077,1740z"/><path d="M1171.4 1732.88c-.95-3.65-4.24-6.21-8.01-6.24l-70.71-.43 4.24-34.52c.39-3.14-1.03-6.22-3.67-7.96-2.63-1.75-6.03-1.85-8.76-.27l-205.91 118.62c-3.41 1.96-4.98 6.05-3.77 9.79 1.21 3.74 4.88 6.15 8.79 5.72l71.99-7.51-8.36 40.87c-.65 3.2.62 6.49 3.26 8.41 1.46 1.06 3.18 1.59 4.9 1.59 1.41 0 2.82-.36 4.1-1.08l207.94-117.64C1170.73 1740.37 1172.35 1736.53 1171.4 1732.88zM972.2 1795.01c-1.59-1.75-3.83-2.73-6.17-2.73-.29 0-.58.01-.87.05l-44.28 4.62 157.46-90.71-3.35 27.24c-.29 2.36.44 4.73 2.01 6.52.72.82 1.59 1.45 2.55 1.93v30.88l-112.32 63.54 6.97-34.07C974.73 1799.67 973.99 1796.97 972.2 1795.01zM1072.52 1937.6c-9.73 0-18.92-2.32-27.51-6.97-31.58-17.1-42.71-59.71-43.17-61.51-1.13-4.46 1.57-9 6.03-10.13 4.46-1.13 8.99 1.56 10.13 6.02.15.59 9.94 37.46 35.01 50.99 11.08 5.98 23.35 6.54 37.5 1.69 11.67-3.99 19.86-11.18 25.05-21.99 16.16-33.65-3.35-88.72-3.55-89.27-1.56-4.33.68-9.1 5.01-10.67 4.33-1.56 9.1.68 10.66 5 .91 2.52 22.09 62.13 2.92 102.11-7.12 14.85-18.79 25.14-34.7 30.59C1087.82 1936.22 1080.01 1937.6 1072.52 1937.6z"/></g><g><path fill="#fff" d="M1561.2,2048.84c26.44-6.3,48.84-22.53,63.09-45.68l25.66-41.72c14.23-23.13,18.59-50.4,12.3-76.79
				c-5.87-24.64-20.64-46.09-41.58-60.37l-107.63-72.98c-10.65-6.45-24.56-3.08-31.1,7.54c-3.28,5.33-4.26,11.43-2.85,17.33
				c1.41,5.9,5.03,10.9,10.19,14.07l7.79,4.81c3.91,2.42,5.13,7.55,2.72,11.46c-2.41,3.92-7.54,5.14-11.46,2.72l-33.15-20.39
				c-10.66-6.55-24.68-3.22-31.24,7.45c-6.62,10.77-3.35,24.69,7.18,31.3l33.31,20.49c3.92,2.41,5.14,7.54,2.73,11.46
				c-2.41,3.92-7.54,5.14-11.46,2.73l-33.15-20.39c-0.07-0.04-0.14-0.09-0.21-0.13l-19.68-12.1c-5.17-3.18-11.27-4.16-17.16-2.76
				c-5.9,1.41-10.9,5.03-14.08,10.2c-0.03,0.04-0.15,0.24-0.18,0.28c-6.46,10.51-3.16,24.47,7.43,31.05l53.14,32.69
				c3.92,2.41,5.14,7.54,2.73,11.46c-2.41,3.92-7.54,5.14-11.46,2.73l-53.04-32.63c-0.04-0.03-0.09-0.05-0.13-0.08l-79.51-48.91
				c-3.63-2.23-7.71-3.38-11.86-3.38c-1.76,0-3.54,0.21-5.3,0.63c-5.9,1.41-10.9,5.03-14.08,10.2c-6.66,10.82-3.32,24.84,7.35,31.4
				l198.98,122.39c2.67,1.64,4.19,4.65,3.94,7.77c-0.25,3.12-2.24,5.84-5.14,7.04l-103.38,42.47c-13.79,5.44-21.53,20.3-18.13,34.6
				c1.75,7.34,9.14,11.88,16.48,10.14L1561.2,2048.84z"/><path d="M1678.46,1880.79c-6.83-28.69-24.02-53.65-48.42-70.29l-107.81-73.1c-0.1-0.07-0.21-0.14-0.31-0.2
				c-18.49-11.37-42.79-5.58-54.27,13.07c-4.34,7.06-6.31,15.11-5.77,23.21c-18.21-9.77-41.18-3.74-52.23,14.24
				c-4.62,7.52-6.41,15.99-5.66,24.17c-7.12-2.56-14.82-3-22.35-1.2c-10.23,2.44-18.9,8.72-24.33,17.55
				c-0.03,0.04-0.15,0.24-0.18,0.28c-4.43,7.2-6.25,15.28-5.74,23.13l-52.25-32.14c-8.97-5.52-19.54-7.21-29.76-4.77
				c-10.23,2.44-18.9,8.71-24.51,17.84c-11.37,18.49-5.58,42.79,12.91,54.17l185.03,113.81l-88.13,36.21
				c-21.34,8.43-33.43,31.61-28.11,53.92c3.32,13.93,15.79,23.32,29.52,23.32c2.32,0,4.68-0.27,7.03-0.83l201.94-48.12
				c30.77-7.33,56.84-26.21,73.42-53.16l25.66-41.72C1680.7,1943.26,1685.78,1911.51,1678.46,1880.79z M1342.79,2086.82
				c-3.41-14.3,4.34-29.16,18.13-34.6l103.38-42.47c2.9-1.19,4.89-3.91,5.14-7.04c0.25-3.12-1.27-6.13-3.94-7.77l-198.98-122.39
				c-10.66-6.56-14.01-20.58-7.35-31.4c3.18-5.17,8.18-8.79,14.08-10.2c1.76-0.42,3.53-0.63,5.3-0.63c4.15,0,8.24,1.15,11.86,3.38
				l79.51,48.91c0.04,0.02,0.08,0.05,0.13,0.08l53.04,32.63c3.92,2.4,9.05,1.19,11.46-2.73c2.41-3.92,1.19-9.05-2.73-11.46
				l-53.14-32.69c-10.58-6.59-13.88-20.55-7.43-31.05c0.03-0.04,0.15-0.24,0.18-0.28c3.18-5.17,8.18-8.79,14.08-10.2
				c5.9-1.41,11.99-0.43,17.16,2.76l19.68,12.1c0.07,0.04,0.14,0.09,0.21,0.13l33.15,20.39c3.92,2.41,9.05,1.19,11.46-2.73
				c2.41-3.92,1.19-9.05-2.73-11.46l-33.31-20.49c-10.53-6.61-13.8-20.53-7.18-31.3c6.56-10.66,20.57-14,31.24-7.45l33.15,20.39
				c3.92,2.42,9.05,1.19,11.46-2.72c2.41-3.92,1.2-9.05-2.72-11.46l-7.79-4.81c-5.16-3.17-8.78-8.17-10.19-14.07
				c-1.41-5.9-0.43-12,2.85-17.33c6.53-10.62,20.45-13.98,31.1-7.54l107.63,72.98c20.94,14.28,35.71,35.73,41.58,60.37
				c6.29,26.39,1.92,53.66-12.3,76.79l-25.66,41.72c-14.24,23.16-36.65,39.38-63.09,45.68l-201.94,48.12
				C1351.92,2098.69,1344.53,2094.16,1342.79,2086.82z"/></g><g><path fill="#fff" d="M529.48,1126.66c20.14,120.15,60.96,273.74,142.35,349.26c41.77,38.76,76.72,39.84,83.36,39.67
					c91.43-30.14,156.81-108.77,194.33-233.75c22.76-75.82,27.84-146.87,28.98-173.65l-228.83-77.28L529.48,1126.66z"/><path d="M748.24,997.17l-253.75,110.35l1.92,12.05c64.58,405.28,223.48,427.51,257.49,427.51c3.37,0,5.51-0.22,6.22-0.3
					l1.49-0.18l1.43-0.46c101.58-32.66,176.57-121.18,216.86-256c29.92-100.11,30.4-189.39,30.41-193.14l0.02-11.32L748.24,997.17z
					 M949.52,1281.83c-37.52,124.98-102.89,203.61-194.33,233.75c-6.65,0.17-41.59-0.91-83.36-39.67
					c-81.39-75.52-122.21-229.11-142.35-349.26l220.18-95.75l228.83,77.28C977.36,1134.97,972.28,1206.02,949.52,1281.83z"/><path d="M753.99,1474.41c-10.72,0-41.28-3.18-75.94-35.34c-54.38-50.45-93.12-146.12-115.14-284.34
					c-0.6-3.75,1.42-7.44,4.91-8.95l178.88-77.79c1.89-0.82,4.03-0.91,5.99-0.25l185.39,62.61c3.39,1.14,5.67,4.33,5.67,7.91
					c0,2.81-0.36,69.7-22.8,144.77c-30.07,100.58-85.87,166.58-161.37,190.86c-0.5,0.16-1.02,0.28-1.55,0.34
					C757.74,1474.25,756.34,1474.41,753.99,1474.41z M580.39,1158.48c14.97,90.67,45.66,208.15,107.47,266.95
					c34.23,32.56,62.59,32.57,67.5,32.29c155.02-50.69,170.1-274.11,171.55-313.55l-176.53-59.62L580.39,1158.48z"/><polygon points="843.21 1229.65 784.43 1229.65 784.43 1170.88 722.09 1170.88 722.09 1229.65 663.32 1229.65 663.32 1291.99 722.09 1291.99 722.09 1350.77 784.43 1350.77 784.43 1291.99 843.21 1291.99"/></g><path d="M1896.11 2601.16c-10.5 0-21.33-2.72-31.8-8.33-7.4-3.97-18.38-14.68-8.79-41.84 8.93-25.28 35.45-62.48 70.7-101.33-13.49-23.77-34.13-48.89-63.38-73.89-30.43-26-64.03-36.31-99.84-30.62-110.08 17.48-208.92 177.29-209.9 178.9-2.4 3.93-7.53 5.17-11.46 2.76-3.93-2.4-5.16-7.53-2.76-11.46 1.04-1.71 26.01-42.3 65.62-85.8 53.77-59.04 106.22-92.98 155.89-100.87 40.85-6.49 78.97 5.09 113.28 34.41 27.5 23.5 49.24 48.46 64.43 73.76 60.72-64.06 142.31-129.55 205.82-151.43.37-13.05 1.58-25.9 3.66-38.22 10.41-61.64 41.44-109.19 89.72-137.5 3.97-2.32 9.08-1 11.4 2.97 2.33 3.97 1 9.08-2.97 11.4-55.46 32.52-75.05 86.42-81.72 125.9-1.67 9.9-2.75 20.17-3.25 30.6 12.97-2.93 24.92-3.63 35.45-1.65 39.59 7.47 46.57 48.69 45.45 81.95-1.9 56.54-12.41 85.52-32.13 88.59-17.69 2.76-35.63-17.64-49.29-55.95-9.84-27.61-15.4-59.11-16.31-90.29-59.23 22.91-138.94 87.02-197.47 148.95 4.84 9.84 8.68 19.69 11.47 29.5 9.72 34.23 6.13 67.27-9.87 90.66C1935.2 2591.16 1916.25 2601.16 1896.11 2601.16zM1934.24 2465.43c-31.21 34.66-54.71 67.63-63 91.11-2.86 8.09-5.01 18.41.95 21.61 23 12.33 47.37 6.36 62.11-15.21C1949.66 2540.47 1952.18 2505.45 1934.24 2465.43zM2160.46 2297.79c.38 31.01 5.68 62.63 15.48 90.13 11.63 32.62 25.17 46.03 31.02 45.08 5.43-.84 16.18-17.12 18.04-72.68 1.97-58.63-23.51-63.43-31.88-65.01C2183.78 2293.55 2172.73 2294.54 2160.46 2297.79zM1547.16 622.06c-6.52 0-12.92-.9-18.96-2.78-18.3-5.7-29.98-19.61-32.04-38.15-3.39-30.52 44.03-72.84 86.38-104.15-13.03-10.17-32.45-17.15-58.09-20.85-65.32-9.43-169.56 3.53-285.98 35.55-23.57 6.48-45.57 13.18-65.75 19.88 2.38 36.17-18.54 58.47-34.71 70.16-33.36 24.11-97.33 35.02-117.04 13.14-3.71-4.11-10.76-15.42 3.71-31.6 15.21-17 64.56-40.59 129.47-63-2.45-11.11-7.24-22.98-14.4-35.52-11.2-19.64-28.41-31.96-52.64-37.69-131.23-31.03-404.28 149.59-407.02 151.42-3.83 2.55-9 1.52-11.56-2.31-2.55-3.83-1.52-9 2.31-11.56 11.44-7.63 281.83-186.48 420.09-153.77 28.57 6.76 49.86 22.12 63.28 45.66 8 14.04 13.08 26.81 15.88 38.39 20.21-6.66 41.69-13.15 63.94-19.27 118.55-32.61 225.26-45.72 292.78-35.98 30.86 4.45 54.17 13.6 69.66 27.28 51.41-36.21 113.25-70.56 163.88-90.88 55.62-22.31 88.93-24.95 101.82-8.07 2.79 3.66 2.09 8.89-1.56 11.68-3.66 2.79-8.89 2.09-11.68-1.57-5.29-6.93-30.04-7.57-82.37 13.42-53.65 21.52-111.84 54.67-158.97 87.88 1.9 2.77 3.57 5.67 5.01 8.7 26.83 56.53 8.36 90.87-5.04 106.31C1592.43 611.85 1569.12 622.06 1547.16 622.06zM1594.08 489.16c-49.35 36.47-83.41 71.66-81.36 90.14 1.69 15.16 12.04 21.46 20.44 24.08 19.99 6.22 46.57-2.32 61.83-19.89 18.53-21.35 19.44-52.69 2.57-88.24C1596.56 493.13 1595.4 491.11 1594.08 489.16zM1156.07 517.24c-64.58 22.56-107.58 44.41-118.96 57.14-2.26 2.53-5.76 7.1-3.75 9.33 9.05 10.04 60.85 9.12 94.89-15.49C1146.72 554.88 1156.01 537.66 1156.07 517.24z"/></svg>