<svg width="10" height="15" viewBox="0 0 10 15" fill="none" xmlns="http://www.w3.org/2000/svg">
<g clip-path="url(#clip0_1_1348)">
<path d="M1.28252 1.91564C1.08539 1.71564 0.975872 1.45248 0.986824 1.1788C0.986824 0.905111 1.09634 0.652478 1.30443 0.452479C1.50156 0.263005 1.77535 0.147215 2.0601 0.147215C2.34484 0.147215 2.61864 0.241953 2.82672 0.431426L9.02542 6.38932C9.12398 6.48406 9.20065 6.59985 9.2554 6.72616C9.31016 6.85248 9.34302 6.98932 9.34302 7.12616C9.34302 7.26301 9.31016 7.39985 9.2554 7.53669C9.20065 7.66301 9.12398 7.7788 9.02542 7.87353L2.82672 13.8314C2.72815 13.9262 2.60768 14.0104 2.47626 14.063C2.33389 14.1156 2.19152 14.1472 2.04914 14.1472C1.90677 14.1472 1.75345 14.1262 1.62203 14.0735C1.4906 14.0209 1.37013 13.9367 1.26062 13.842C1.16205 13.7472 1.08539 13.6209 1.03063 13.4946C0.964919 13.3683 0.943016 13.2314 0.943016 13.0841C0.943016 12.9472 0.975871 12.8104 1.03063 12.6841C1.08539 12.5577 1.173 12.442 1.28252 12.3367L6.70364 7.12616L5.67418 6.14722L1.28252 1.91564Z" fill="#181725"/>
</g>
<defs>
<clipPath id="clip0_1_1348">
<rect width="8.4" height="14" fill="white" transform="translate(9.34302 14.1472) rotate(-180)"/>
</clipPath>
</defs>
</svg>
