<svg width="24" height="24" viewBox="0 0 24 24" fill="none" xmlns="http://www.w3.org/2000/svg">
<path d="M7.63098 7.58781C8.16098 8.06281 8.86298 8.35181 9.63098 8.35181H11.631C12.3691 8.35283 13.0815 8.08069 13.631 7.58781H7.63098ZM7.63098 7.58781C7.08152 8.08069 6.36912 8.35283 5.63098 8.35181L7.63098 7.58781ZM6.68098 2.35181V2.30181H6.63098H3.63098C3.35251 2.30181 3.08544 2.41243 2.88852 2.60934C2.69161 2.80626 2.58098 3.07333 2.58098 3.35181V5.35181C2.58098 5.63028 2.69161 5.89736 2.88852 6.09427C3.08544 6.29118 3.35251 6.40181 3.63098 6.40181H5.63098C5.90946 6.40181 6.17653 6.29118 6.37345 6.09427C6.57036 5.89736 6.68098 5.63028 6.68098 5.35181V2.35181ZM3.64098 8.30181H3.59098V8.35181V18.3168V18.3668H3.64098H5.63098H5.68098V18.3168V13.3518C5.68098 12.8346 5.88643 12.3386 6.25213 11.9729C6.61782 11.6073 7.11381 11.4018 7.63098 11.4018H9.63098C10.1482 11.4018 10.6441 11.6073 11.0098 11.9729C11.3755 12.3386 11.581 12.8346 11.581 13.3518V18.3168V18.3668H11.631H17.644H17.694V18.3168V8.35181V8.30181H17.644H15.631C14.8757 8.30181 14.1855 8.01765 13.6644 7.55057L13.631 7.52065L13.5976 7.55059C13.0573 8.03522 12.3568 8.30281 11.6311 8.30181H11.631H9.63098C8.87574 8.30181 8.18552 8.01765 7.66435 7.55057L7.63097 7.52065L7.5976 7.55059C7.05733 8.03522 6.35684 8.30281 5.63105 8.30181H5.63098H3.64098ZM1.63915 7.52893C1.34271 7.25816 1.10468 6.92947 0.939884 6.56299C0.768655 6.18222 0.680402 5.76938 0.680984 5.35188V5.35181V3.35181C0.680984 2.56942 0.991787 1.81907 1.54502 1.26584C2.09825 0.712609 2.8486 0.401807 3.63098 0.401807H17.631C18.4134 0.401807 19.1637 0.712609 19.717 1.26584C20.2702 1.81907 20.581 2.56942 20.581 3.35181V5.35181C20.581 6.21914 20.2074 6.99984 19.6104 7.53972L19.594 7.55461V7.57681V18.3168C19.594 18.834 19.3885 19.33 19.0228 19.6957C18.6571 20.0614 18.1612 20.2668 17.644 20.2668H10.004V20.2659L9.99469 20.2677C9.87478 20.2904 9.75301 20.3018 9.63097 20.3018H7.63098C7.50896 20.3018 7.38719 20.2904 7.26727 20.2677L7.26744 20.2668H7.25798H3.64198C3.12481 20.2668 2.62882 20.0614 2.26313 19.6957C1.89743 19.33 1.69198 18.834 1.69198 18.3168V7.59681V7.47611L1.63915 7.52893ZM9.68098 13.3518V13.3018H9.63098H7.63098H7.58098V13.3518V18.3168V18.3668H7.63098H9.63098V18.3178H9.68098V18.3168V18.2668V13.3518ZM12.681 2.35181V2.30181H12.631H8.63098H8.58098V2.35181V5.35181C8.58098 5.63028 8.69161 5.89736 8.88852 6.09427C9.08544 6.29118 9.35251 6.40181 9.63098 6.40181H11.631C11.9095 6.40181 12.1765 6.29118 12.3734 6.09427C12.5704 5.89736 12.681 5.63028 12.681 5.35181V2.35181ZM14.631 2.30181H14.581V2.35181V5.35181C14.581 5.63028 14.6916 5.89736 14.8885 6.09427C15.0854 6.29118 15.3525 6.40181 15.631 6.40181H17.631C17.9095 6.40181 18.1765 6.29118 18.3734 6.09427C18.5704 5.89736 18.681 5.63028 18.681 5.35181V3.35181C18.681 3.07333 18.5704 2.80626 18.3734 2.60934C18.1765 2.41243 17.9095 2.30181 17.631 2.30181H14.631ZM14.631 11.4018H15.631C15.8829 11.4018 16.1246 11.5019 16.3027 11.6801C16.4809 11.8582 16.581 12.0999 16.581 12.3518V15.3518C16.581 15.6038 16.4809 15.8454 16.3027 16.0236C16.1246 16.2017 15.8829 16.3018 15.631 16.3018H14.631C14.379 16.3018 14.1374 16.2017 13.9592 16.0236C13.7811 15.8454 13.681 15.6038 13.681 15.3518V12.3518C13.681 12.0999 13.7811 11.8582 13.9592 11.6801C14.1374 11.5019 14.379 11.4018 14.631 11.4018Z" fill="#030303" stroke="white" stroke-width="0.1"/>
</svg>
