<svg width="24" height="24" viewBox="0 0 25 25" fill="none" xmlns="http://www.w3.org/2000/svg">
<path d="M8.5408 12.4218C8.68163 12.3693 8.83308 12.3421 8.98618 12.3416C9.13929 12.3411 9.29096 12.3674 9.43222 12.419C9.57348 12.4706 9.70146 12.5463 9.8086 12.6418C9.91574 12.7373 9.99987 12.8506 10.056 12.9749C10.1121 13.0993 10.1392 13.2322 10.1354 13.3659C10.1317 13.4995 10.0974 13.6311 10.0344 13.7529C9.97139 13.8748 9.88106 13.9844 9.76874 14.0752C9.65642 14.166 9.52437 14.2363 9.38041 14.2818C8.61473 14.5452 7.95757 15.0037 7.49444 15.5976C7.03131 16.1915 6.78365 16.8933 6.78369 17.6118V19.3518C6.78369 19.617 6.90437 19.8714 7.11918 20.0589C7.33399 20.2465 7.62534 20.3518 7.92913 20.3518H17.0927C17.3965 20.3518 17.6878 20.2465 17.9027 20.0589C18.1175 19.8714 18.2381 19.617 18.2381 19.3518V17.7048C18.2383 16.9633 17.9803 16.2392 17.4983 15.6286C17.0164 15.018 16.3332 14.5497 15.5395 14.2858C15.3946 14.2419 15.2613 14.1731 15.1475 14.0834C15.0337 13.9937 14.9417 13.885 14.8769 13.7637C14.8121 13.6424 14.7758 13.5109 14.7703 13.3771C14.7648 13.2434 14.7901 13.11 14.8447 12.9849C14.8993 12.8598 14.9821 12.7456 15.0882 12.649C15.1943 12.5524 15.3216 12.4753 15.4624 12.4224C15.6033 12.3695 15.7549 12.3419 15.9082 12.3411C16.0615 12.3403 16.2135 12.3664 16.355 12.4178C17.5825 12.826 18.6389 13.5501 19.3843 14.4943C20.1297 15.4385 20.5289 16.5581 20.529 17.7048V19.3518C20.529 20.1475 20.167 20.9105 19.5226 21.4731C18.8781 22.0357 18.0041 22.3518 17.0927 22.3518H7.92913C7.01776 22.3518 6.14372 22.0357 5.49928 21.4731C4.85484 20.9105 4.4928 20.1475 4.4928 19.3518V17.6118C4.49296 16.492 4.87913 15.3981 5.60109 14.4724C6.32304 13.5468 7.34736 12.8323 8.5408 12.4218ZM12.5109 2.35181C13.7261 2.35181 14.8915 2.77323 15.7507 3.52338C16.61 4.27352 17.0927 5.29094 17.0927 6.35181V8.35181C17.0927 9.41267 16.61 10.4301 15.7507 11.1802C14.8915 11.9304 13.7261 12.3518 12.5109 12.3518C11.2958 12.3518 10.1304 11.9304 9.27111 11.1802C8.41186 10.4301 7.92913 9.41267 7.92913 8.35181V6.35181C7.92913 5.29094 8.41186 4.27352 9.27111 3.52338C10.1304 2.77323 11.2958 2.35181 12.5109 2.35181ZM12.5109 4.35181C11.9033 4.35181 11.3206 4.56252 10.891 4.93759C10.4614 5.31267 10.22 5.82137 10.22 6.35181V8.35181C10.22 8.88224 10.4614 9.39095 10.891 9.76602C11.3206 10.1411 11.9033 10.3518 12.5109 10.3518C13.1185 10.3518 13.7012 10.1411 14.1308 9.76602C14.5604 9.39095 14.8018 8.88224 14.8018 8.35181V6.35181C14.8018 5.82137 14.5604 5.31267 14.1308 4.93759C13.7012 4.56252 13.1185 4.35181 12.5109 4.35181Z" fill="#030303"/>
</svg>
