<svg width="56" height="65" viewBox="0 0 56 65" fill="none" xmlns="http://www.w3.org/2000/svg">
<path fill-rule="evenodd" clip-rule="evenodd" d="M37.5433 5.6422C37.8164 3.20276 36.0869 0.99998 33.6475 0.726908C31.208 0.435631 29.0052 2.18329 28.7322 4.62273C28.4045 7.40806 28.8596 10.7395 29.4422 14.162C31.0624 14.6536 32.628 15.3636 34.0844 16.201C35.65 12.5054 37.1792 8.84624 37.5433 5.6422ZM54.674 16.3466C53.7091 14.0892 51.0876 13.0697 48.8302 14.0346C45.8629 15.3271 42.7863 17.8576 39.6914 20.4609C40.8566 21.6078 41.9488 22.9003 42.8773 24.3021C46.3908 23.8652 49.7587 23.3372 52.362 22.2085C54.6194 21.2073 55.657 18.5858 54.674 16.3466ZM47.1918 4.44068C45.2257 2.9843 42.4404 3.38481 40.984 5.35092C38.763 8.33651 37.2702 12.7967 35.65 17.1476C36.1961 17.5117 36.7059 17.8758 37.1974 18.2581C37.5615 18.5494 37.9438 18.8589 38.3261 19.1683C42.0399 16.3648 45.8993 13.6341 48.1203 10.6485C49.5766 8.6824 49.1579 5.89707 47.1918 4.44068Z" fill="white"/>
<path d="M38.7449 40.0856C37.3795 41.5602 35.9231 42.9256 34.3757 44.2545C32.2093 46.1296 30.0066 47.9501 27.7674 49.6978C25.3643 48.2232 23.6349 47.4768 23.3436 47.8591C23.0887 48.205 24.09 49.4793 25.8923 51.1359C19.8483 55.6325 13.4584 59.6012 6.59521 62.8598C5.52113 63.3696 4.39243 63.7337 3.28194 64.1342C2.99066 64.2434 2.68118 64.2434 2.55375 64.2616C0.80609 64.4618 0.278152 63.9885 0.350971 62.3865C0.569428 57.3984 2.11683 52.7198 3.71886 48.0593C4.15577 46.785 4.61089 45.5107 5.08421 44.2363C7.50545 45.7109 9.2349 46.4755 9.52618 46.0932C9.83566 45.6745 8.37928 43.9997 5.93984 41.9061C7.6875 37.3913 9.63541 32.9494 11.9292 28.6895C16.5168 32.0938 20.5947 34.3329 21.0498 33.714C21.5049 33.095 18.137 29.7999 13.4948 26.3592L13.2946 26.2136C14.0956 24.8482 14.933 23.4829 15.825 22.1539C16.9355 20.4791 18.3009 18.9499 19.648 17.4571C21.4503 15.4728 23.7805 14.7992 26.3838 15.3818C34.7216 17.2386 40.5107 22.0265 43.2414 30.2369C43.7876 31.9117 43.2961 33.5501 42.4404 35.0611C41.8579 36.0806 41.2207 37.0455 40.5107 37.9557C36.1052 34.7334 32.2822 32.6581 31.8452 33.2407C31.4265 33.8232 34.4667 36.827 38.7449 40.0856Z" fill="white"/>
</svg>
