<svg width="18" height="18" viewBox="0 0 18 18" fill="none" xmlns="http://www.w3.org/2000/svg">
<path d="M17.582 8.68085C17.582 9.05668 17.4379 9.41998 17.1685 9.68306C16.9053 9.9524 16.5419 10.1027 16.1659 10.1027H10.5013V15.7652C10.5013 16.1411 10.3509 16.5044 10.0815 16.7674C9.8183 17.0305 9.46113 17.1808 9.08516 17.1808C8.7092 17.1808 8.34576 17.0305 8.08258 16.7674C7.81314 16.5044 7.66275 16.1411 7.66275 15.7652V10.1027H1.99818C1.62221 10.1027 1.25877 9.9524 0.995596 9.68306C0.732418 9.41998 0.582031 9.05668 0.582031 8.68085C0.582031 8.30502 0.732418 7.94798 0.995596 7.67864C1.25877 7.41556 1.62221 7.26522 1.99818 7.26522H7.66275V1.60273C7.66275 1.2269 7.81314 0.863603 8.08258 0.600523C8.34576 0.331179 8.7092 0.180847 9.08516 0.180847C9.46113 0.180847 9.8183 0.331179 10.0815 0.600523C10.3509 0.863603 10.5013 1.2269 10.5013 1.60273V7.26522H16.1659C16.5419 7.26522 16.9053 7.41556 17.1685 7.67864C17.4379 7.94798 17.582 8.30502 17.582 8.68085Z" fill="#53B175"/>
</svg>
