<svg width="15" height="16" viewBox="0 0 15 16" fill="none" xmlns="http://www.w3.org/2000/svg">
<path d="M14.5445 13.1508L14.5436 13.1498L10.1518 8.9181L10.1516 8.91787L9.15995 7.97493L14.5436 2.80044C14.6566 2.69186 14.7487 2.57078 14.8067 2.4369C14.8637 2.30535 14.8984 2.16175 14.8984 2.017C14.8984 1.86534 14.876 1.72031 14.806 1.58495C14.7496 1.45527 14.6699 1.32335 14.5655 1.22302L14.5655 1.22297L14.5635 1.22126C14.4517 1.12449 14.3265 1.03651 14.188 0.981067C14.049 0.925396 13.8889 0.903796 13.7423 0.903796C13.5925 0.903796 13.4441 0.937016 13.2978 0.991112L13.2978 0.991095L13.2966 0.991594C13.1581 1.04704 13.0323 1.13521 12.93 1.23355L6.73109 7.19168C6.62718 7.29154 6.54693 7.41305 6.48986 7.54469L6.48984 7.54469L6.48932 7.546C6.4329 7.68699 6.39812 7.83025 6.39812 7.97512C6.39812 8.11987 6.43284 8.26348 6.48986 8.39503C6.54693 8.52668 6.62718 8.64818 6.73109 8.74804L12.93 14.7062L12.93 14.7062L12.931 14.7071C13.1493 14.9059 13.4356 15.0043 13.7313 15.0043C14.0294 15.0043 14.3155 14.8833 14.5217 14.6851C14.7389 14.4764 14.8544 14.2113 14.8546 13.9237C14.8659 13.6354 14.7503 13.3595 14.5445 13.1508Z" fill="#B3B3B3" stroke="#B3B3B3" stroke-width="0.1"/>
<path d="M0.990371 2.75742L0.991288 2.75832L5.38312 6.99007L5.38335 6.9903L6.37496 7.93324L0.991332 13.1077C0.878359 13.2163 0.786245 13.3374 0.728206 13.4713C0.67118 13.6028 0.636462 13.7464 0.636462 13.8912C0.636462 14.0428 0.658902 14.1879 0.728907 14.3232C0.785309 14.4529 0.865047 14.5848 0.969428 14.6851L0.96938 14.6852L0.971365 14.6869C1.08323 14.7837 1.20846 14.8717 1.34691 14.9271C1.48592 14.9828 1.64598 15.0044 1.79263 15.0044C1.94242 15.0044 2.09077 14.9712 2.23711 14.9171L2.23711 14.9171L2.23836 14.9166C2.3768 14.8611 2.50257 14.773 2.60489 14.6746L8.80383 8.7165C8.90773 8.61663 8.98798 8.49513 9.04505 8.36348L9.04507 8.36349L9.0456 8.36217C9.10201 8.22118 9.13679 8.07792 9.13679 7.93305C9.13679 7.7883 9.10208 7.64469 9.04505 7.51315C8.98798 7.3815 8.90773 7.25999 8.80383 7.16013L2.60489 1.202L2.6049 1.20199L2.6039 1.20108C2.38557 1.00228 2.09933 0.903828 1.80359 0.903828C1.50552 0.903828 1.21941 1.02489 1.01324 1.22306C0.796053 1.4318 0.680538 1.69691 0.680272 1.98445C0.669028 2.27274 0.784589 2.54864 0.990371 2.75742Z" fill="#B3B3B3" stroke="#B3B3B3" stroke-width="0.1"/>
</svg>
