<svg width="16" height="17" viewBox="0 0 16 17" fill="none" xmlns="http://www.w3.org/2000/svg">
<path fill-rule="evenodd" clip-rule="evenodd" d="M0.0745239 8.61794C0.0745239 12.905 3.54967 16.3802 7.83675 16.3802C12.1238 16.3802 15.599 12.905 15.599 8.61794C15.599 4.33086 12.1238 0.855713 7.83675 0.855713C3.54967 0.855713 0.0745239 4.33086 0.0745239 8.61794Z" fill="#C5C5C5"/>
<path d="M11.1873 11.156L11.1873 11.156L11.1864 11.1551L9.02632 9.07379L9.02608 9.07356L8.55764 8.6281L11.1863 6.10155C11.2436 6.04645 11.2912 5.98422 11.3214 5.91453C11.3506 5.84718 11.3687 5.77311 11.3687 5.6979C11.3687 5.62112 11.3573 5.54565 11.3207 5.47451C11.2922 5.40899 11.2514 5.34126 11.1971 5.28908L11.1971 5.28903L11.1951 5.28732C11.1389 5.2387 11.0749 5.19351 11.0033 5.16481C10.931 5.13589 10.8489 5.12499 10.7746 5.12499C10.6972 5.12499 10.6212 5.14216 10.5472 5.16951L10.5472 5.16949L10.5459 5.16999C10.4743 5.19869 10.4097 5.24407 10.3575 5.29426L7.30867 8.22466C7.25486 8.27638 7.21356 8.33904 7.18432 8.40649L7.1843 8.40649L7.18378 8.4078C7.15519 8.47925 7.1371 8.55296 7.1371 8.6283C7.1371 8.70351 7.15512 8.77757 7.18432 8.84493C7.21356 8.91238 7.25486 8.97504 7.30867 9.02676L10.3575 11.9572L10.3575 11.9572L10.3585 11.9581C10.4711 12.0606 10.6182 12.1109 10.7692 12.1109C10.9226 12.1109 11.0696 12.0487 11.1755 11.9468C11.287 11.8397 11.3468 11.703 11.3471 11.5545C11.3528 11.4053 11.2929 11.2631 11.1873 11.156Z" fill="white" stroke="white" stroke-width="0.1"/>
<path d="M4.48507 6.0799L4.48506 6.07991L4.48599 6.08081L6.64603 8.16211L6.64627 8.16234L7.11471 8.6078L4.48604 11.1344C4.42872 11.1894 4.38113 11.2517 4.35092 11.3214C4.32172 11.3887 4.3037 11.4628 4.3037 11.538C4.3037 11.6148 4.31501 11.6902 4.35161 11.7614C4.38019 11.8269 4.42098 11.8946 4.47526 11.9468L4.47521 11.9469L4.4772 11.9486C4.53341 11.9972 4.59742 12.0424 4.66908 12.0711C4.7413 12.1 4.82344 12.1109 4.89775 12.1109C4.97518 12.1109 5.05118 12.0937 5.12516 12.0664L5.12517 12.0664L5.12642 12.0659C5.19808 12.0372 5.26262 11.9918 5.31485 11.9416L8.36368 9.01125C8.41749 8.95952 8.45878 8.89686 8.48803 8.82941L8.48805 8.82942L8.48857 8.8281C8.51716 8.75665 8.53525 8.68294 8.53525 8.6076C8.53525 8.53239 8.51722 8.45833 8.48803 8.39098C8.45878 8.32352 8.41749 8.26086 8.36368 8.20914L5.31485 5.27874L5.31486 5.27873L5.31386 5.27782C5.20128 5.17531 5.05417 5.125 4.90313 5.125C4.74978 5.125 4.6028 5.18723 4.49681 5.2891C4.38537 5.39621 4.32551 5.53293 4.32525 5.68139C4.31957 5.83059 4.37947 5.97276 4.48507 6.0799Z" fill="white" stroke="white" stroke-width="0.1"/>
</svg>
