<svg width="24" height="24" viewBox="0 0 25 25" fill="none" xmlns="http://www.w3.org/2000/svg">
<g clip-path="url(#clip0_1_1811)">
<path d="M5.61014 11.8434L13.4342 19.6675L21.2583 11.8434C21.9501 11.1517 22.3387 10.2135 22.3387 9.2352C22.3387 8.25693 21.9501 7.31871 21.2583 6.62697C20.9158 6.28445 20.5092 6.01275 20.0617 5.82738C19.6141 5.64201 19.1345 5.5466 18.6501 5.5466C17.6718 5.5466 16.7336 5.93522 16.0419 6.62697L13.4342 9.23459L10.8266 6.6282C10.1331 5.94573 9.19801 5.56495 8.22503 5.56879C7.25204 5.57264 6.31999 5.9608 5.6319 6.64873C4.94381 7.33666 4.55543 8.26862 4.55135 9.24161C4.54727 10.2146 4.92783 11.1498 5.61014 11.8434ZM12.565 4.88732L13.4342 5.75653L14.3034 4.88732C14.8734 4.3124 15.5512 3.85571 16.2981 3.54347C17.045 3.23122 17.8462 3.06957 18.6557 3.0678C19.4652 3.06603 20.2671 3.22416 21.0153 3.53314C21.7636 3.84211 22.4434 4.29583 23.0158 4.86824C23.5882 5.44066 24.042 6.12051 24.3509 6.86874C24.6599 7.61698 24.8181 8.41888 24.8163 9.2284C24.8145 10.0379 24.6529 10.8391 24.3406 11.586C24.0284 12.3329 23.5717 13.0107 22.9968 13.5806L14.3047 22.2739C14.1905 22.3882 14.0549 22.4789 13.9057 22.5408C13.7564 22.6027 13.5964 22.6345 13.4349 22.6345C13.2733 22.6345 13.1133 22.6027 12.9641 22.5408C12.8148 22.4789 12.6792 22.3882 12.565 22.2739L3.87172 13.5819C3.28898 13.0138 2.82484 12.3357 2.50623 11.5868C2.18761 10.838 2.02086 10.0333 2.01564 9.21951C2.01043 8.40572 2.16686 7.59899 2.47585 6.84612C2.78485 6.09325 3.24026 5.40923 3.81567 4.83374C4.39108 4.25825 5.07504 3.80274 5.82786 3.49364C6.58069 3.18453 7.38739 3.02799 8.20119 3.03309C9.01499 3.03819 9.81967 3.20483 10.5686 3.52334C11.3175 3.84185 11.9956 4.30589 12.5638 4.88855L12.565 4.88732Z" fill="#030303"/>
</g>
<defs>
<clipPath id="clip0_1_1811">
<rect width="24" height="24" fill="white" transform="translate(0.915909 0.83374)"/>
</clipPath>
</defs>
</svg>
