<svg width="27" height="31" viewBox="0 0 27 31" fill="none" xmlns="http://www.w3.org/2000/svg">
<path fill-rule="evenodd" clip-rule="evenodd" d="M18.0105 2.39517C18.1427 1.21408 17.3054 0.147568 16.1243 0.0153565C14.9432 -0.12567 13.8767 0.720487 13.7445 1.90158C13.5858 3.25014 13.8062 4.86313 14.0882 6.52018C14.8727 6.75817 15.6307 7.10192 16.3358 7.50737C17.0938 5.7181 17.8342 3.94646 18.0105 2.39517ZM26.3046 7.57788C25.8375 6.48493 24.5682 5.99134 23.4753 6.45849C22.0386 7.08429 20.549 8.30945 19.0506 9.56987C19.6147 10.1252 20.1435 10.751 20.5931 11.4297C22.2942 11.2181 23.9248 10.9625 25.1852 10.416C26.2782 9.93125 26.7806 8.66202 26.3046 7.57788ZM22.682 1.81344C21.7301 1.10831 20.3815 1.30222 19.6764 2.25415C18.6011 3.69966 17.8783 5.85912 17.0938 7.9657C17.3583 8.14198 17.6051 8.31827 17.843 8.50336C18.0193 8.64439 18.2044 8.79423 18.3895 8.94407C20.1876 7.58669 22.0562 6.26458 23.1315 4.81906C23.8367 3.86713 23.6339 2.51857 22.682 1.81344Z" fill="#53B175"/>
<path d="M18.5921 19.0715C17.9311 19.7854 17.226 20.4465 16.4768 21.0899C15.4279 21.9978 14.3614 22.8792 13.2772 23.7254C12.1138 23.0114 11.2764 22.65 11.1354 22.8351C11.012 23.0026 11.4968 23.6196 12.3694 24.4217C9.44308 26.5988 6.34932 28.5202 3.02639 30.098C2.50635 30.3448 1.95988 30.521 1.42222 30.715C1.28119 30.7678 1.13135 30.7678 1.06965 30.7767C0.223495 30.8736 -0.0321152 30.6444 0.00314137 29.8688C0.108911 27.4537 0.858112 25.1885 1.63376 22.9321C1.84529 22.3151 2.06565 21.6981 2.29482 21.0811C3.46709 21.7951 4.30444 22.1653 4.44546 21.9802C4.5953 21.7774 3.89017 20.9665 2.70908 19.9529C3.55524 17.767 4.49835 15.6164 5.60893 13.5538C7.83009 15.2021 9.80445 16.2862 10.0248 15.9865C10.2452 15.6869 8.61455 14.0915 6.36694 12.4256L6.26999 12.3551C6.65781 11.6941 7.06326 11.033 7.49515 10.3896C8.03281 9.57867 8.69387 8.83829 9.34612 8.11553C10.2187 7.15479 11.3469 6.82867 12.6073 7.11072C16.6442 8.00976 19.4471 10.3279 20.7692 14.303C21.0337 15.1139 20.7957 15.9072 20.3814 16.6388C20.0994 17.1324 19.7909 17.5995 19.4471 18.0402C17.3141 16.4801 15.4631 15.4753 15.2516 15.7574C15.0489 16.0394 16.5208 17.4938 18.5921 19.0715Z" fill="#F3603F"/>
</svg>
